REM DIRINDEX 1\2,1\3,1\4,1\5,1\6
REM DIRNAME cjc129,folder01,folder02,folder03,folder04,folder05
TITLE ""
FILE "DISC5Track16.mp3" MP3
  TRACK 01 AUDIO
    TITLE "0:"
    INDEX 01 00:00:00
  TRACK 02 AUDIO
    TITLE "3:cjc129_4331"
    INDEX 01 00:00:05
  TRACK 03 AUDIO
    TITLE "0:"
    INDEX 01 00:01:54
  TRACK 04 AUDIO
    TITLE "5:cjc129_4332"
    INDEX 01 00:02:10
  TRACK 05 AUDIO
    TITLE "0:"
    INDEX 01 00:08:07
  TRACK 06 AUDIO
    TITLE "4:cjc129_4333"
    INDEX 01 00:08:73
  TRACK 07 AUDIO
    TITLE "0:"
    INDEX 01 00:10:49
  TRACK 08 AUDIO
    TITLE "6:cjc129_4334"
    INDEX 01 00:11:05
  TRACK 09 AUDIO
    TITLE "0:"
    INDEX 01 00:14:70
  TRACK 10 AUDIO
    TITLE "3:cjc129_4335"
    INDEX 01 00:16:48
  TRACK 11 AUDIO
    TITLE "0:"
    INDEX 01 00:17:67
  TRACK 12 AUDIO
    TITLE "5:cjc129_4336"
    INDEX 01 00:19:40
  TRACK 13 AUDIO
    TITLE "0:"
    INDEX 01 00:33:26
  TRACK 14 AUDIO
    TITLE "4:cjc129_4337"
    INDEX 01 00:34:18
  TRACK 15 AUDIO
    TITLE "0:"
    INDEX 01 00:35:37
  TRACK 16 AUDIO
    TITLE "6:cjc129_4338"
    INDEX 01 00:35:68
  TRACK 17 AUDIO
    TITLE "0:"
    INDEX 01 00:40:01
  TRACK 18 AUDIO
    TITLE "3:cjc129_4339"
    INDEX 01 00:41:55
  TRACK 19 AUDIO
    TITLE "0:"
    INDEX 01 00:42:74
  TRACK 20 AUDIO
    TITLE "5:cjc129_4340"
    INDEX 01 00:44:30
  TRACK 21 AUDIO
    TITLE "0:"
    INDEX 01 00:46:54
  TRACK 22 AUDIO
    TITLE "4:cjc129_4341"
    INDEX 01 00:47:44
  TRACK 23 AUDIO
    TITLE "0:"
    INDEX 01 00:48:61
  TRACK 24 AUDIO
    TITLE "6:cjc129_4342"
    INDEX 01 00:49:21
  TRACK 25 AUDIO
    TITLE "0:"
    INDEX 01 00:54:36
  TRACK 26 AUDIO
    TITLE "3:cjc129_4343"
    INDEX 01 00:56:08
  TRACK 27 AUDIO
    TITLE "0:"
    INDEX 01 00:57:19
  TRACK 28 AUDIO
    TITLE "5:cjc129_4344"
    INDEX 01 00:57:56
  TRACK 29 AUDIO
    TITLE "0:"
    INDEX 01 01:00:72
  TRACK 30 AUDIO
    TITLE "4:cjc129_4345"
    INDEX 01 01:01:60
  TRACK 31 AUDIO
    TITLE "0:"
    INDEX 01 01:02:73
  TRACK 32 AUDIO
    TITLE "6:cjc129_4346"
    INDEX 01 01:03:33
  TRACK 33 AUDIO
    TITLE "0:"
    INDEX 01 01:07:15
  TRACK 34 AUDIO
    TITLE "3:cjc129_4347"
    INDEX 01 01:08:64
  TRACK 35 AUDIO
    TITLE "0:"
    INDEX 01 01:10:16
  TRACK 36 AUDIO
    TITLE "5:cjc129_4348"
    INDEX 01 01:10:47
  TRACK 37 AUDIO
    TITLE "0:"
    INDEX 01 01:12:19
  TRACK 38 AUDIO
    TITLE "4:cjc129_4349"
    INDEX 01 01:13:08
  TRACK 39 AUDIO
    TITLE "0:"
    INDEX 01 01:14:33
  TRACK 40 AUDIO
    TITLE "6:cjc129_4350"
    INDEX 01 01:14:68
  TRACK 41 AUDIO
    TITLE "0:"
    INDEX 01 01:18:66
  TRACK 42 AUDIO
    TITLE "3:cjc129_4351"
    INDEX 01 01:20:42
  TRACK 43 AUDIO
    TITLE "0:"
    INDEX 01 01:21:61
  TRACK 44 AUDIO
    TITLE "5:cjc129_4352"
    INDEX 01 01:22:17
  TRACK 45 AUDIO
    TITLE "0:"
    INDEX 01 01:27:03
  TRACK 46 AUDIO
    TITLE "4:cjc129_4353"
    INDEX 01 01:27:65
  TRACK 47 AUDIO
    TITLE "0:"
    INDEX 01 01:29:11
  TRACK 48 AUDIO
    TITLE "6:cjc129_4354"
    INDEX 01 01:29:43
  TRACK 49 AUDIO
    TITLE "0:"
    INDEX 01 01:33:36
  TRACK 50 AUDIO
    TITLE "3:cjc129_4355"
    INDEX 01 01:35:12
  TRACK 51 AUDIO
    TITLE "0:"
    INDEX 01 01:36:54
  TRACK 52 AUDIO
    TITLE "5:cjc129_4356"
    INDEX 01 01:37:13
  TRACK 53 AUDIO
    TITLE "0:"
    INDEX 01 01:39:00
  TRACK 54 AUDIO
    TITLE "4:cjc129_4357"
    INDEX 01 01:39:66
  TRACK 55 AUDIO
    TITLE "0:"
    INDEX 01 01:41:30
  TRACK 56 AUDIO
    TITLE "6:cjc129_4358"
    INDEX 01 01:41:67
  TRACK 57 AUDIO
    TITLE "0:"
    INDEX 01 01:46:72
  TRACK 58 AUDIO
    TITLE "3:cjc129_4359"
    INDEX 01 01:48:50
  TRACK 59 AUDIO
    TITLE "0:"
    INDEX 01 01:50:07
  TRACK 60 AUDIO
    TITLE "5:cjc129_4360"
    INDEX 01 01:50:39
  TRACK 61 AUDIO
    TITLE "0:"
    INDEX 01 01:52:48
  TRACK 62 AUDIO
    TITLE "4:cjc129_4361"
    INDEX 01 01:53:37
  TRACK 63 AUDIO
    TITLE "0:"
    INDEX 01 01:54:70
  TRACK 64 AUDIO
    TITLE "6:cjc129_4362"
    INDEX 01 01:55:28
  TRACK 65 AUDIO
    TITLE "0:"
    INDEX 01 01:58:60
